<?xml version="1.0" encoding="UTF-8"?>
<svg width="1680px" height="1975px" viewBox="0 0 1680 1975" version="1.1" xmlns="http://www.w3.org/2000/svg" xmlns:xlink="http://www.w3.org/1999/xlink">
    <!-- Generator: sketchtool 49.2 (51160) - http://www.bohemiancoding.com/sketch -->
    <title>FE5838B5-599A-4F84-B393-3E310D4913F7</title>
    <desc>Created with sketchtool.</desc>
    <defs></defs>
    <g id="Desktop" stroke="none" stroke-width="1" fill="none" fill-rule="evenodd">
        <g id="Form-template-Thank-you" transform="translate(0.000000, -448.000000)" fill="#F7F9FB">
            <g id="Fill-184-+-Fill-187-Mask" transform="translate(-713.000000, 448.000000)">
                <path d="M1260.20845,0 C1353.9506,3.15641264 1436.71749,9.09789525 1516.76957,37.1806842 C1573.68776,57.0939345 1634.01687,68.8144373 1692.02563,86.3603782 C1720.19468,94.8780505 1747.96927,106.343255 1773.58594,120.059725 C1837.41877,154.339294 1899.81299,190.986174 1963.08894,226.147682 C2042.12007,269.989325 2107.80918,327.176095 2164.65776,393.48397 C2172.57016,402.721118 2180.57537,412.190356 2190.01919,420.081388 C2253.0167,472.858464 2295.80396,539.096712 2336.38688,606.657867 C2361.6787,648.851678 2388.45554,690.720563 2408.45696,735.11922 C2425.2563,772.230277 2433.72558,812.544165 2445.07209,851.65119 C2459.59748,901.921703 2471.75612,952.818856 2487.85935,1002.74124 C2504.14821,1053.08138 2504.7979,1104.76763 2505.79565,1156.03613 C2506.88622,1212.10887 2503.4753,1268.36728 2498.8114,1324.32398 C2495.72533,1361.94564 2488.67147,1399.45124 2480.45743,1436.46947 C2470.57274,1481.00738 2460.13116,1525.80059 2444.97927,1569.01559 C2419.80347,1640.87039 2391.84325,1711.72722 2361.19143,1782.09665 C2331.37493,1850.49333 2288.05399,1910.8133 2245.82361,1971.66708 C2212.31776,2019.872 2168.50954,2061.88014 2130.50221,2107.46245 C2101.45142,2142.43829 2063.97777,2167.4575 2024.62463,2191.1538 C1991.3508,2211.22952 1959.65482,2233.39403 1927.44836,2254.88549 C1878.30334,2287.67969 1826.86118,2316.50516 1771.49762,2339.85333 C1693.69628,2372.62432 1610.41891,2389.61325 1529.71713,2413.79694 C1524.33391,2415.44477 1518.11538,2417.51037 1513.10342,2416.41955 C1457.55423,2404.72225 1402.72436,2418.20663 1347.59284,2418.9029 C1240.25344,2420.43469 1135.30399,2403.77069 1032.90694,2374.04006 C1011.32768,2367.72724 989.51639,2361.69292 967.728301,2356.21562 C884.845391,2335.58289 806.997641,2305.06317 734.138644,2262.89256 C651.394955,2214.87332 565.356368,2171.28697 493.611139,2109.36558 C428.432501,2053.15359 358.891605,2000.74785 303.551252,1935.36833 C282.621693,1910.74367 256.912212,1889.60035 237.142828,1864.32584 C175.53753,1785.67082 148.389432,1692.30135 112.563224,1603.1327 C78.6165006,1518.60582 51.4684029,1431.68843 22.9280951,1345.30484 C-1.78363486,1270.40967 -2.73497845,1194.05233 2.69464108,1116.11679 C10.2589828,1005.22459 42.2102055,899.62402 79.2661986,795.787328 C100.126147,737.25444 138.527943,683.827515 171.059254,629.10089 C202.430389,576.370231 235.054513,524.243005 269.604528,473.322642 C288.909842,444.729257 311.858106,418.015794 335.664899,392.369942 C357.661819,368.580802 381.561426,345.812855 407.270907,325.319382 C433.908528,304.083223 462.170393,283.659377 492.42776,267.273882 C565.658014,227.609844 640.396494,190.266697 714.90294,152.528999 C763.212632,127.997174 811.986394,104.138408 860.85297,80.5349401 C869.484673,76.3573352 879.346161,73.8739811 888.952411,71.8780143 C944.246357,60.5984809 998.171296,45.6055208 1051.70178,28.2220424 C1088.68816,16.2462415 1128.83022,11.8597563 1167.95132,6.68416794 C1201.64281,2.34410056 1235.89118,1.67104199 1260.20845,0 M127.390262,1259.66394 C134.513738,1300.62768 139.131235,1342.12522 149.178351,1382.53194 C161.128155,1430.29589 177.92749,1477.10828 191.965609,1524.5473 C197.952113,1544.55339 200.133242,1565.76634 207.790398,1585.1922 C244.962408,1678.58488 300.256354,1763.57594 356.780086,1847.73147 C377.593628,1878.69216 400.356263,1909.67606 427.852413,1935.62363 C467.437588,1973.0132 511.036969,2006.99105 554.914792,2040.13338 C588.95433,2065.87207 626.172748,2088.03659 661.998955,2111.7561 C696.131307,2134.26875 728.476989,2159.6593 764.72086,2178.78345 C859.646388,2229.1468 960.163959,2268.83405 1066.04154,2295.19938 C1109.66412,2306.08436 1155.79269,2308.12674 1199.20644,2319.54553 C1249.67406,2332.86745 1300.3041,2332.72819 1351.44462,2331.19641 C1439.54832,2328.48096 1523.52179,2303.27608 1609.6764,2290.07021 C1629.21374,2287.05305 1650.53776,2287.00663 1667.73156,2279.44052 C1767.3674,2235.80776 1870.739,2197.76834 1951.11593,2124.2425 C1962.11439,2114.19304 1976.33814,2107.09111 1988.19513,2097.76112 C2015.06478,2076.68743 2042.9786,2056.37963 2067.5047,2033.19392 C2090.0585,2011.74888 2104.42147,1981.25236 2130.03814,1965.05254 C2160.9452,1945.441 2160.06347,1914.24822 2177.60532,1890.71438 C2183.33658,1883.17148 2188.48776,1875.30366 2194.40465,1867.90001 C2226.93596,1826.75061 2257.88944,1785.04418 2276.49864,1736.28225 C2289.56222,1702.21156 2307.84658,1669.90475 2321.18859,1635.92689 C2338.38238,1591.96921 2353.51107,1547.26883 2368.75577,1502.63809 C2374.71907,1485.30103 2378.71007,1467.31412 2383.07233,1449.51288 C2397.80655,1389.79634 2422.19344,1332.14539 2420.45317,1269.13318 C2418.06321,1180.05736 2402.30803,1092.90788 2382.8867,1006.17616 C2375.99526,975.65643 2363.27974,946.227524 2353.51107,916.171977 C2330.05233,843.736949 2309.51723,770.303937 2282.32272,699.075773 C2258.53913,636.80625 2217.32971,583.611413 2161.24685,540.999843 C2114.21335,505.234902 2067.80634,468.843321 2021.44575,432.382114 C1986.96534,405.482979 1955.64061,374.429449 1918.16696,351.800756 C1857.76824,315.362757 1793.68017,283.868257 1730.54344,251.236521 C1713.46566,242.417132 1694.57801,236.220352 1675.89919,230.278869 C1620.9765,212.802555 1563.54783,201.360559 1509.18203,183.768201 C1413.56039,152.877133 1316.24491,154.43213 1218.8134,156.56735 C1122.56527,158.632944 1027.63974,173.950829 935.080973,199.527055 C906.679887,207.371669 877.559491,212.941809 849.297626,221.227392 C782.309114,241.071015 724.300359,276.348568 666.477231,312.252762 C636.243068,331.005567 602.922838,345.812855 572.247808,364.055064 C510.224847,400.887614 459.780433,450.160144 408.431082,498.179392 C378.707396,525.983674 347.220243,553.532658 324.434404,585.978723 C287.70326,638.268412 249.695923,690.465265 229.578486,751.527924 C217.350241,788.778235 195.863798,823.730863 186.303955,861.352517 C169.272584,927.753227 160.339236,995.917814 143.864749,1062.5042 C137.344565,1088.91594 144.792889,1114.93314 140.012968,1139.09362 C132.054166,1179.31467 132.657457,1218.88587 127.390262,1259.66394" id="Fill-184"></path>
                <path d="M206,1193.94242 C211.916701,1164.53267 219.295175,1131.36255 225.258281,1097.89068 C235.305071,1041.36917 244.957415,984.685175 253.913676,927.977969 C263.380397,867.951431 284.610912,811.453134 312.825454,757.252837 C334.728849,715.122842 353.22144,670.091332 383.385013,633.416184 C439.906908,564.801162 502.067071,499.598321 578.937777,448.995902 C607.291536,430.310147 639.937803,417.241724 670.47262,401.318211 C679.011232,396.93112 688.895603,392.961848 694.719493,386.276758 C734.767437,340.82743 793.099146,324.277189 849.365812,308.260827 C930.204188,285.187982 1013.10761,268.150287 1095.63978,250.068046 C1124.17917,243.87041 1153.92509,240.110047 1183.32297,239.204775 C1241.02821,237.463866 1299.03508,235.189078 1356.34587,239.367259 C1401.08077,242.686592 1445.21239,254.524773 1489.20481,264.181014 C1597.16719,287.927012 1700.97629,322.745189 1797.12848,374.113608 C1850.84284,402.780574 1901.37843,435.27754 1945.30123,477.407536 C1985.30277,515.939652 2031.63866,549.295467 2077.74252,581.931705 C2147.09554,631.164609 2199.32492,690.657269 2222.82931,769.323139 C2240.04575,827.028466 2256.47329,884.942701 2273.64333,942.694452 C2283.04044,974.146873 2294.45619,1005.01899 2303.04121,1036.61068 C2312.02067,1069.43262 2321.64982,1102.5331 2325.52467,1135.95855 C2330.0028,1174.67637 2325.08382,1214.27624 2330.09562,1252.83157 C2338.56462,1317.17556 2316.87005,1376.90034 2302.69317,1437.76252 C2286.42804,1508.28093 2258.32951,1575.13184 2225.82246,1640.68286 C2207.5387,1677.28837 2197.74714,1717.83994 2176.19178,1752.56527 C2148.41809,1797.43429 2124.28724,1845.34411 2082.26706,1882.08889 C2073.26439,1889.9578 2067.30129,1901.21568 2061.26857,1911.54507 C2036.23281,1954.97494 2002.72804,1991.25549 1959.43171,2020.47954 C1935.7417,2036.4959 1913.14222,2054.18354 1892.09733,2072.93893 C1842.30423,2117.29729 1779.19276,2142.57529 1720.37379,2173.16886 C1657.1695,2206.08364 1586.93478,2228.76188 1514.17096,2229.57431 C1463.51936,2230.1314 1416.25536,2235.58625 1369.2698,2251.37049 C1360.33674,2254.31842 1349.47785,2254.38806 1339.7095,2253.506 C1258.43027,2246.17097 1175.9909,2244.70861 1097.40319,2222.14643 C1049.14148,2208.40485 1003.96573,2185.51771 955.495184,2172.58856 C893.706264,2156.10795 839.272616,2126.79105 784.815765,2097.5902 C752.192701,2080.08826 724.233389,2055.27451 693.814585,2034.01221 C676.96939,2022.29009 659.938573,2010.61439 642.374092,1999.77433 C571.28087,1955.69452 510.211236,1903.90828 458.422701,1839.37859 C405.775665,1773.78115 360.460697,1704.49297 319.693468,1633.41747 C281.594555,1567.07723 251.570198,1495.67675 244.145319,1418.33397 C241.082556,1386.18519 227.392934,1354.96489 221.986694,1322.79289 C215.002666,1281.70744 211.522254,1240.18096 206,1193.94242" id="Fill-187"></path>
            </g>
        </g>
    </g>
</svg>