<?xml version="1.0" encoding="UTF-8"?>
<svg width="140px" height="39px" viewBox="0 0 140 39" version="1.1" xmlns="http://www.w3.org/2000/svg" xmlns:xlink="http://www.w3.org/1999/xlink">
    <!-- Generator: sketchtool 49.2 (51160) - http://www.bohemiancoding.com/sketch -->
    <title>BE3139D7-418C-4EC6-B43B-D3F9DC25A3B9</title>
    <desc>Created with sketchtool.</desc>
    <defs>
        <polygon id="path-1" points="0.000463424976 0.875 36.5346064 0.875 36.5346064 32.7808 0.000463424976 32.7808"></polygon>
        <polygon id="path-3" points="0 39.1248 139.262 39.1248 139.262 0.9998 0 0.9998"></polygon>
    </defs>
    <g id="Symbols" stroke="none" stroke-width="1" fill="none" fill-rule="evenodd">
        <g id="Footer" transform="translate(-285.000000, -91.000000)">
            <g id="Page-1" transform="translate(285.000000, 90.000000)">
                <path d="M33.5313,21.5535 L18.2643,6.3015 L31.5813,19.6045 L30.1343,21.0505 L32.0853,22.9995 C33.5063,24.4245 34.2883,26.3125 34.2883,28.3175 C34.2943,30.3605 33.4683,32.3635 32.0233,33.8125 C30.7243,35.1155 29.0553,35.8325 27.3263,35.8325 C27.1733,35.8325 27.0183,35.8265 26.8633,35.8165 C23.2113,35.5505 20.7973,33.9735 19.8093,31.3435 L18.2263,32.9065 L16.6963,31.3765 C15.5883,33.9935 12.9243,35.8065 9.7483,35.8135 C7.7303,35.8105 5.8383,35.0235 4.4183,33.5975 C3.0113,32.1835 2.2393,30.3075 2.2463,28.3065 C2.2373,26.3145 3.0153,24.4315 4.4383,23.0055 L6.4013,21.0435 L4.9543,19.5975 L2.9913,21.5595 C1.1793,23.3755 0.1883,25.7755 0.2003,28.3075 C0.1923,30.8475 1.1753,33.2395 2.9693,35.0405 C4.7733,36.8545 7.1793,37.8555 9.7493,37.8595 C13.4723,37.8505 16.6473,35.8755 18.2273,32.9195 C19.6533,35.8115 22.5873,37.5565 26.7153,37.8565 C26.9213,37.8715 27.1243,37.8785 27.3263,37.8785 L27.3273,37.8785 C29.6033,37.8785 31.7863,36.9475 33.4723,35.2565 C35.2983,33.4255 36.3413,30.8945 36.3343,28.3145 C36.3343,25.7665 35.3393,23.3655 33.5313,21.5535" id="Fill-1" fill="#FEFEFE"></path>
                <g id="Group-5" transform="translate(0.000000, 0.124800)">
                    <mask id="mask-2" fill="white">
                        <use xlink:href="#path-1"></use>
                    </mask>
                    <g id="Clip-4"></g>
                    <path d="M33.7335,3.7178 C31.9085,1.8858 29.4745,0.8758 26.8785,0.8748 C23.1305,0.8828 19.8735,3.0408 18.2765,6.1768 C17.8225,5.2788 17.2225,4.4468 16.4915,3.7128 C14.6675,1.8838 12.2385,0.8758 9.6505,0.8748 C7.0655,0.8748 4.6355,1.8838 2.8085,3.7158 C0.9915,5.5388 -0.0065,7.9568 0.0005,10.5228 C0.0005,13.1018 1.0075,15.5288 2.8375,17.3568 L4.9545,19.4728 L18.2645,6.1768 L31.5815,19.4798 L30.1335,20.9258 L18.2645,9.0688 L6.4015,20.9188 L5.3225,19.8398 L18.2705,32.7808 L33.7105,17.3528 C35.5435,15.5198 36.5465,13.0938 36.5345,10.5308 C36.5435,7.9588 35.5475,5.5388 33.7335,3.7178" id="Fill-3" fill="#FEFEFE" mask="url(#mask-2)"></path>
                </g>
                <path d="M55.3058,25.6853 L54.3288,26.4343 C53.7898,25.7323 53.1438,25.2013 52.3878,24.8383 C51.6328,24.4763 50.8038,24.2953 49.8998,24.2953 C48.9108,24.2953 47.9968,24.5333 47.1548,25.0063 C46.3128,25.4813 45.6598,26.1193 45.1968,26.9183 C44.7338,27.7183 44.5018,28.6183 44.5018,29.6183 C44.5018,31.1273 45.0198,32.3883 46.0558,33.3983 C47.0918,34.4093 48.3978,34.9143 49.9758,34.9143 C51.7098,34.9143 53.1608,34.2353 54.3288,32.8763 L55.3058,33.6173 C54.6888,34.4033 53.9178,35.0113 52.9938,35.4403 C52.0718,35.8703 51.0388,36.0843 49.8998,36.0843 C47.7328,36.0843 46.0238,35.3633 44.7718,33.9203 C43.7218,32.7033 43.1968,31.2313 43.1968,29.5073 C43.1968,27.6953 43.8318,26.1683 45.1048,24.9313 C46.3758,23.6933 47.9688,23.0743 49.8828,23.0743 C51.0388,23.0743 52.0838,23.3033 53.0158,23.7603 C53.9478,24.2183 54.7108,24.8593 55.3058,25.6853" id="Fill-6" fill="#FEFEFE"></path>
                <path d="M61.9288,27.5291 C60.9498,27.5291 60.1068,27.8911 59.4028,28.6151 C58.6988,29.3401 58.3458,30.2161 58.3458,31.2431 C58.3458,31.9051 58.5068,32.5221 58.8278,33.0951 C59.1488,33.6681 59.5828,34.1101 60.1288,34.4221 C60.6758,34.7331 61.2758,34.8891 61.9288,34.8891 C62.5828,34.8891 63.1828,34.7331 63.7298,34.4221 C64.2758,34.1101 64.7088,33.6681 65.0308,33.0951 C65.3518,32.5221 65.5128,31.9051 65.5128,31.2431 C65.5128,30.2161 65.1588,29.3401 64.4508,28.6151 C63.7438,27.8911 62.9038,27.5291 61.9288,27.5291 M61.9338,26.3761 C63.3448,26.3761 64.5148,26.8861 65.4428,27.9081 C66.2858,28.8401 66.7078,29.9431 66.7078,31.2171 C66.7078,32.4981 66.2628,33.6161 65.3708,34.5731 C64.4798,35.5301 63.3338,36.0081 61.9338,36.0081 C60.5278,36.0081 59.3788,35.5301 58.4878,34.5731 C57.5958,33.6161 57.1508,32.4981 57.1508,31.2171 C57.1508,29.9491 57.5728,28.8481 58.4158,27.9171 C59.3438,26.8891 60.5168,26.3761 61.9338,26.3761" id="Fill-8" fill="#FEFEFE"></path>
                <path d="M68.881,26.6111 L70.06,26.6111 L70.06,28.1941 C70.47,27.6101 70.892,27.1831 71.324,26.9141 C71.92,26.5551 72.547,26.3761 73.204,26.3761 C73.649,26.3761 74.069,26.4631 74.469,26.6361 C74.868,26.8101 75.194,27.0421 75.446,27.3311 C75.699,27.6201 75.919,28.0341 76.105,28.5731 C76.496,27.8541 76.986,27.3081 77.574,26.9351 C78.163,26.5621 78.796,26.3761 79.473,26.3761 C80.107,26.3761 80.665,26.5351 81.15,26.8551 C81.634,27.1751 81.993,27.6221 82.229,28.1941 C82.464,28.7671 82.581,29.6261 82.581,30.7711 L82.581,35.7731 L81.377,35.7731 L81.377,30.7711 C81.377,29.7891 81.308,29.1141 81.167,28.7461 C81.027,28.3791 80.788,28.0821 80.45,27.8571 C80.111,27.6321 79.707,27.5201 79.237,27.5201 C78.666,27.5201 78.145,27.6891 77.672,28.0261 C77.199,28.3631 76.854,28.8121 76.635,29.3731 C76.417,29.9341 76.308,30.8721 76.308,32.1861 L76.308,35.7731 L75.129,35.7731 L75.129,31.0831 C75.129,29.9761 75.061,29.2261 74.923,28.8301 C74.785,28.4341 74.545,28.1171 74.203,27.8791 C73.86,27.6401 73.453,27.5201 72.982,27.5201 C72.438,27.5201 71.928,27.6851 71.453,28.0131 C70.979,28.3411 70.628,28.7841 70.401,29.3401 C70.173,29.8951 70.06,30.7461 70.06,31.8911 L70.06,35.7731 L68.881,35.7731 L68.881,26.6111 Z" id="Fill-10" fill="#FEFEFE"></path>
                <path d="M85.0577,26.6111 L86.2377,26.6111 L86.2377,28.1941 C86.6477,27.6101 87.0677,27.1831 87.5007,26.9141 C88.0967,26.5551 88.7237,26.3761 89.3817,26.3761 C89.8257,26.3761 90.2467,26.4631 90.6457,26.6361 C91.0437,26.8101 91.3697,27.0421 91.6237,27.3311 C91.8757,27.6201 92.0967,28.0341 92.2827,28.5731 C92.6727,27.8541 93.1627,27.3081 93.7507,26.9351 C94.3387,26.5621 94.9717,26.3761 95.6497,26.3761 C96.2827,26.3761 96.8407,26.5351 97.3257,26.8551 C97.8117,27.1751 98.1707,27.6221 98.4057,28.1941 C98.6417,28.7671 98.7587,29.6261 98.7587,30.7711 L98.7587,35.7731 L97.5537,35.7731 L97.5537,30.7711 C97.5537,29.7891 97.4837,29.1141 97.3447,28.7461 C97.2037,28.3791 96.9657,28.0821 96.6257,27.8571 C96.2877,27.6321 95.8837,27.5201 95.4147,27.5201 C94.8427,27.5201 94.3217,27.6891 93.8487,28.0261 C93.3757,28.3631 93.0307,28.8121 92.8117,29.3731 C92.5947,29.9341 92.4857,30.8721 92.4857,32.1861 L92.4857,35.7731 L91.3057,35.7731 L91.3057,31.0831 C91.3057,29.9761 91.2377,29.2261 91.1007,28.8301 C90.9617,28.4341 90.7217,28.1171 90.3797,27.8791 C90.0377,27.6401 89.6297,27.5201 89.1597,27.5201 C88.6147,27.5201 88.1047,27.6851 87.6297,28.0131 C87.1557,28.3411 86.8057,28.7841 86.5777,29.3401 C86.3507,29.8951 86.2377,30.7461 86.2377,31.8911 L86.2377,35.7731 L85.0577,35.7731 L85.0577,26.6111 Z" id="Fill-12" fill="#FEFEFE"></path>
                <path d="M101.0909,26.6111 L102.2699,26.6111 L102.2699,30.8891 C102.2699,31.9331 102.3259,32.6521 102.4389,33.0451 C102.6079,33.6061 102.9289,34.0491 103.4039,34.3761 C103.8789,34.7011 104.4449,34.8641 105.1039,34.8641 C105.7609,34.8641 106.3199,34.7051 106.7779,34.3871 C107.2359,34.0711 107.5519,33.6541 107.7269,33.1371 C107.8449,32.7841 107.9029,32.0341 107.9029,30.8891 L107.9029,26.6111 L109.1079,26.6111 L109.1079,31.1081 C109.1079,32.3711 108.9599,33.3231 108.6649,33.9631 C108.3709,34.6021 107.9269,35.1031 107.3349,35.4651 C106.7419,35.8281 105.9999,36.0081 105.1079,36.0081 C104.2149,36.0081 103.4699,35.8281 102.8719,35.4651 C102.2749,35.1031 101.8269,34.5981 101.5329,33.9501 C101.2379,33.3011 101.0909,32.3261 101.0909,31.0241 L101.0909,26.6111 Z" id="Fill-14" fill="#FEFEFE"></path>
                <path d="M111.7267,26.6111 L112.9057,26.6111 L112.9057,28.2541 C113.3767,27.6251 113.8997,27.1541 114.4717,26.8421 C115.0447,26.5311 115.6677,26.3761 116.3417,26.3761 C117.0267,26.3761 117.6337,26.5491 118.1637,26.8971 C118.6957,27.2461 119.0867,27.7151 119.3387,28.3031 C119.5917,28.8931 119.7177,29.8111 119.7177,31.0571 L119.7177,35.7731 L118.5387,35.7731 L118.5387,31.4031 C118.5387,30.3471 118.4957,29.6421 118.4087,29.2891 C118.2717,28.6821 118.0097,28.2261 117.6227,27.9211 C117.2347,27.6151 116.7297,27.4621 116.1067,27.4621 C115.3927,27.4621 114.7537,27.6971 114.1907,28.1691 C113.6257,28.6401 113.2537,29.2241 113.0747,29.9211 C112.9617,30.3761 112.9057,31.2061 112.9057,32.4131 L112.9057,35.7731 L111.7267,35.7731 L111.7267,26.6111 Z" id="Fill-16" fill="#FEFEFE"></path>
                <mask id="mask-4" fill="white">
                    <use xlink:href="#path-3"></use>
                </mask>
                <g id="Clip-19"></g>
                <path d="M122.067,35.7728 L123.246,35.7728 L123.246,26.6108 L122.067,26.6108 L122.067,35.7728 Z M122.652,22.8388 C122.921,22.8388 123.15,22.9348 123.34,23.1248 C123.53,23.3158 123.625,23.5458 123.625,23.8148 C123.625,24.0788 123.53,24.3068 123.34,24.4978 C123.15,24.6878 122.921,24.7838 122.652,24.7838 C122.39,24.7838 122.163,24.6878 121.974,24.4978 C121.783,24.3068 121.689,24.0788 121.689,23.8148 C121.689,23.5458 121.783,23.3158 121.974,23.1248 C122.163,22.9348 122.39,22.8388 122.652,22.8388 Z" id="Fill-18" fill="#FEFEFE" mask="url(#mask-4)"></path>
                <polygon id="Fill-20" fill="#FEFEFE" mask="url(#mask-4)" points="126.7237 23.2088 127.9027 23.2088 127.9027 26.6108 129.7727 26.6108 129.7727 27.6298 127.9027 27.6298 127.9027 35.7728 126.7237 35.7728 126.7237 27.6298 125.1157 27.6298 125.1157 26.6108 126.7237 26.6108"></polygon>
                <polygon id="Fill-21" fill="#FEFEFE" mask="url(#mask-4)" points="130.5548 26.6111 131.8018 26.6111 134.9508 33.6671 138.0078 26.6111 139.2618 26.6111 133.7968 39.1251 132.5518 39.1251 134.3158 35.0791"></polygon>
                <path d="M50.8311,5.1326 L48.1551,10.7846 L53.4941,10.7846 L50.8311,5.1326 Z M51.0281,1.8156 L58.3101,17.4296 L56.6241,17.4296 L54.1691,12.2916 L47.4421,12.2916 L45.0101,17.4296 L43.2691,17.4296 L50.6461,1.8156 L51.0281,1.8156 Z" id="Fill-22" fill="#FEFEFE" mask="url(#mask-4)"></path>
                <polygon id="Fill-23" fill="#FEFEFE" mask="url(#mask-4)" points="60.263 17.4298 61.749 17.4298 61.749 1.4228 60.263 1.4228"></polygon>
                <polygon id="Fill-24" fill="#FEFEFE" mask="url(#mask-4)" points="64.615 17.4298 66.1 17.4298 66.1 1.4228 64.615 1.4228"></polygon>
                <path d="M68.967,17.4298 L70.453,17.4298 L70.453,5.8808 L68.967,5.8808 L68.967,17.4298 Z M69.705,1.1258 C70.043,1.1258 70.332,1.2458 70.571,1.4858 C70.811,1.7268 70.931,2.0178 70.931,2.3558 C70.931,2.6888 70.811,2.9768 70.571,3.2168 C70.332,3.4568 70.043,3.5768 69.705,3.5768 C69.373,3.5768 69.088,3.4568 68.849,3.2168 C68.609,2.9768 68.489,2.6888 68.489,2.3558 C68.489,2.0178 68.609,1.7268 68.849,1.4858 C69.088,1.2458 69.373,1.1258 69.705,1.1258 Z" id="Fill-25" fill="#FEFEFE" mask="url(#mask-4)"></path>
                <path d="M79.1095,7.0164 C78.2825,7.0164 77.5185,7.2194 76.8195,7.6254 C76.1195,8.0334 75.5625,8.6034 75.1495,9.3384 C74.7355,10.0744 74.5295,10.8514 74.5295,11.6704 C74.5295,12.4844 74.7375,13.2614 75.1545,14.0034 C75.5715,14.7454 76.1315,15.3244 76.8355,15.7374 C77.5385,16.1514 78.2935,16.3574 79.0985,16.3574 C79.9115,16.3574 80.6815,16.1524 81.4105,15.7424 C82.1375,15.3324 82.6985,14.7784 83.0905,14.0784 C83.4825,13.3774 83.6785,12.5894 83.6785,11.7134 C83.6785,10.3774 83.2395,9.2604 82.3585,8.3634 C81.4785,7.4654 80.3955,7.0164 79.1095,7.0164 Z M85.0485,5.8804 L85.0485,17.4294 L83.5835,17.4294 L83.5835,15.4444 C82.9615,16.2024 82.2615,16.7714 81.4875,17.1534 C80.7125,17.5364 79.8645,17.7264 78.9445,17.7264 C77.3095,17.7264 75.9145,17.1344 74.7565,15.9494 C73.6005,14.7634 73.0215,13.3224 73.0215,11.6224 C73.0215,9.9604 73.6055,8.5374 74.7735,7.3564 C75.9405,6.1744 77.3455,5.5834 78.9875,5.5834 C79.9355,5.5834 80.7935,5.7854 81.5615,6.1884 C82.3295,6.5914 83.0035,7.1974 83.5835,8.0034 L83.5835,5.8804 L85.0485,5.8804 Z" id="Fill-26" fill="#FEFEFE" mask="url(#mask-4)"></path>
                <path d="M88.3927,5.8807 L89.8777,5.8807 L89.8777,7.9507 C90.4727,7.1577 91.1307,6.5657 91.8527,6.1727 C92.5747,5.7797 93.3597,5.5837 94.2087,5.5837 C95.0727,5.5837 95.8377,5.8027 96.5067,6.2417 C97.1757,6.6807 97.6687,7.2717 97.9887,8.0147 C98.3067,8.7577 98.4657,9.9137 98.4657,11.4847 L98.4657,17.4297 L96.9797,17.4297 L96.9797,11.9207 C96.9797,10.5897 96.9237,9.7017 96.8147,9.2567 C96.6417,8.4917 96.3117,7.9167 95.8237,7.5307 C95.3347,7.1457 94.6987,6.9527 93.9127,6.9527 C93.0137,6.9527 92.2077,7.2497 91.4967,7.8447 C90.7867,8.4397 90.3177,9.1747 90.0907,10.0527 C89.9497,10.6257 89.8777,11.6727 89.8777,13.1937 L89.8777,17.4297 L88.3927,17.4297 L88.3927,5.8807 Z" id="Fill-27" fill="#FEFEFE" mask="url(#mask-4)"></path>
                <path d="M112.8595,8.2801 L111.6805,9.0121 C110.6635,7.6611 109.2745,6.9841 107.5135,6.9841 C106.1075,6.9841 104.9395,7.4371 104.0095,8.3421 C103.0815,9.2471 102.6165,10.3451 102.6165,11.6391 C102.6165,12.4801 102.8305,13.2721 103.2565,14.0141 C103.6845,14.7571 104.2715,15.3331 105.0175,15.7421 C105.7625,16.1521 106.5985,16.3571 107.5245,16.3571 C109.2205,16.3571 110.6065,15.6811 111.6805,14.3301 L112.8595,15.1051 C112.3065,15.9361 111.5655,16.5811 110.6355,17.0391 C109.7055,17.4981 108.6455,17.7261 107.4565,17.7261 C105.6305,17.7261 104.1165,17.1461 102.9135,15.9861 C101.7105,14.8251 101.1085,13.4141 101.1085,11.7511 C101.1085,10.6331 101.3895,9.5941 101.9525,8.6351 C102.5145,7.6761 103.2885,6.9281 104.2715,6.3901 C105.2555,5.8521 106.3555,5.5841 107.5735,5.5841 C108.3375,5.5841 109.0755,5.7001 109.7865,5.9331 C110.4975,6.1671 111.1005,6.4711 111.5955,6.8461 C112.0905,7.2211 112.5125,7.6991 112.8595,8.2801" id="Fill-28" fill="#FEFEFE" mask="url(#mask-4)"></path>
                <path d="M125.4376,10.4871 C125.2396,9.6951 124.9506,9.0611 124.5716,8.5881 C124.1926,8.1131 123.6906,7.7311 123.0676,7.4411 C122.4436,7.1511 121.7886,7.0061 121.1016,7.0061 C119.9676,7.0061 118.9936,7.3701 118.1786,8.0991 C117.5836,8.6301 117.1336,9.4251 116.8296,10.4871 L125.4376,10.4871 Z M125.4376,13.5971 L126.6906,14.2561 C126.2796,15.0621 125.8046,15.7141 125.2666,16.2091 C124.7276,16.7041 124.1226,17.0811 123.4496,17.3401 C122.7766,17.5971 122.0146,17.7261 121.1656,17.7261 C119.2816,17.7261 117.8076,17.1091 116.7456,15.8751 C115.6836,14.6391 115.1526,13.2441 115.1526,11.6871 C115.1526,10.2221 115.6016,8.9171 116.5006,7.7701 C117.6416,6.3121 119.1676,5.5841 121.0806,5.5841 C123.0486,5.5841 124.6216,6.3301 125.7966,7.8231 C126.6326,8.8781 127.0576,10.1941 127.0726,11.7721 L116.6806,11.7721 C116.7086,13.1131 117.1376,14.2131 117.9656,15.0711 C118.7946,15.9281 119.8196,16.3571 121.0386,16.3571 C121.6256,16.3571 122.1976,16.2561 122.7536,16.0501 C123.3096,15.8461 123.7836,15.5751 124.1726,15.2361 C124.5626,14.8981 124.9846,14.3521 125.4376,13.5971 Z" id="Fill-29" fill="#FEFEFE" mask="url(#mask-4)"></path>
            </g>
        </g>
    </g>
</svg>