<svg width="91" height="100" viewBox="0 0 91 100" version="1.1" xmlns="http://www.w3.org/2000/svg" xmlns:xlink="http://www.w3.org/1999/xlink">
<title>Page 1</title>
<desc>Created using Figma</desc>
<g id="Canvas" transform="translate(4636 -1065)">
<g id="Page 1">
<g id="Fill 1">
<use xlink:href="#path0_fill" transform="translate(-4628.54 1127.07)" fill="#FFFFFF"/>
</g>
<g id="Fill 3">
<use xlink:href="#path1_fill" transform="translate(-4617.67 1077.4)" fill="#FFFFFF"/>
</g>
<g id="Fill 5">
<use xlink:href="#path2_fill" transform="translate(-4592.37 1067.36)" fill="#FFFFFF"/>
</g>
<g id="Fill 7">
<use xlink:href="#path3_fill" transform="translate(-4603.43 1079.8)" fill="#FFFFFF"/>
</g>
<g id="Fill 9">
<use xlink:href="#path4_fill" transform="translate(-4633.06 1105.07)" fill="#FFFFFF"/>
</g>
<g id="Fill 11">
<use xlink:href="#path5_fill" transform="translate(-4577.57 1083.37)" fill="#FFFFFF"/>
</g>
<g id="Fill 13">
<use xlink:href="#path6_fill" transform="translate(-4564.4 1093.11)" fill="#FFFFFF"/>
</g>
<g id="Fill 15">
<use xlink:href="#path7_fill" transform="translate(-4574.44 1122.86)" fill="#FFFFFF"/>
</g>
<g id="Fill 17">
<use xlink:href="#path8_fill" transform="translate(-4557.53 1107.41)" fill="#FFFFFF"/>
</g>
<g id="Fill 19">
<use xlink:href="#path9_fill" transform="translate(-4634.19 1087.8)" fill="#FFFFFF"/>
</g>
<g id="Fill 21">
<use xlink:href="#path10_fill" transform="translate(-4622.58 1084.08)"/>
</g>
<g id="Fill 23">
<use xlink:href="#path11_fill" transform="translate(-4590.33 1122.7)"/>
</g>
<g id="Fill 25">
<use xlink:href="#path12_fill" transform="translate(-4559.37 1105.21)"/>
</g>
<g id="Fill 27">
<use xlink:href="#path13_fill" transform="translate(-4586.95 1097.24)"/>
</g>
<g id="Fill 29">
<use xlink:href="#path14_fill" transform="translate(-4629.79 1091.94)"/>
</g>
<g id="Fill 31">
<use xlink:href="#path15_fill" transform="translate(-4636 1085.87)"/>
</g>
<g id="Fill 33">
<use xlink:href="#path16_fill" transform="translate(-4630.61 1125.18)"/>
</g>
<g id="Group 37">
<mask id="mask0_outline" mask-type="alpha">
<g id="Clip 36">
<use xlink:href="#path17_fill" transform="translate(-4594.14 1065.61)" fill="#FFFFFF"/>
</g>
</mask>
<g id="Fill 35" mask="url(#mask0_outline)">
<use xlink:href="#path18_fill" transform="translate(-4594.14 1065.61)"/>
</g>
</g>
<g id="Fill 38">
<use xlink:href="#path19_fill" transform="translate(-4619.63 1075.26)"/>
</g>
<g id="Fill 40">
<use xlink:href="#path20_fill" transform="translate(-4576.38 1120.89)"/>
</g>
<g id="Fill 42">
<use xlink:href="#path21_fill" transform="translate(-4579.4 1081.24)"/>
</g>
<g id="Fill 44">
<use xlink:href="#path22_fill" transform="translate(-4566.11 1090.98)"/>
</g>
<g id="Fill 46">
<use xlink:href="#path23_fill" transform="translate(-4634.88 1103.19)"/>
</g>
<g id="Fill 48">
<use xlink:href="#path24_fill" transform="translate(-4627.93 1117)"/>
</g>
<g id="Fill 50">
<use xlink:href="#path25_fill" transform="translate(-4599.67 1092.58)"/>
</g>
<g id="Group 54">
<mask id="mask1_outline" mask-type="alpha">
<g id="Clip 53">
<use xlink:href="#path26_fill" transform="translate(-4592 1153.16)" fill="#FFFFFF"/>
</g>
</mask>
<g id="Fill 52" mask="url(#mask1_outline)">
<use xlink:href="#path27_fill" transform="translate(-4592 1153.16)"/>
</g>
</g>
<g id="Fill 55">
<use xlink:href="#path28_fill" transform="translate(-4629.8 1091.94)"/>
</g>
<g id="Fill 57">
<use xlink:href="#path29_fill" transform="translate(-4630.91 1091.72)" fill="#FFFFFF"/>
</g>
<g id="Fill 59">
<use xlink:href="#path30_fill" transform="translate(-4605.14 1078.06)"/>
</g>
</g>
</g>
<defs>
<path id="path0_fill" fill-rule="evenodd" d="M 1.5656 6.82248C 3.02706 7.52431 4.42482 8.36394 5.83472 9.17248C 6.27516 9.42431 6.56332 9.76638 7.01772 9.08589C 7.91922 7.73406 8.9815 6.49321 9.91758 5.16272C 11.2771 3.22979 11.4834 1.11211 10.4496 0.354184C 9.25814 -0.520206 7.19183 0.277355 5.76131 2.16333C 5.71824 2.21943 5.67456 2.2804 5.65029 2.34504C 4.96172 4.18589 3.93403 3.89199 2.78197 2.80662C 2.83111 2.84016 2.88086 2.87309 2.93 2.90662C 2.88632 2.86577 2.84264 2.82431 2.79956 2.78284C 2.46832 1.91089 1.81373 1.60906 0.983809 1.92309C 0.238216 2.20479 0.0495428 2.87431 0.0107161 3.65906C -0.0566239 5.0304 0.162383 6.14931 1.5656 6.82248"/>
<path id="path1_fill" fill-rule="evenodd" d="M 6.93463 4.08108C 7.34291 3.44389 7.52067 2.63596 7.70145 1.88047C 7.83674 1.3134 8.36757 0.548158 7.64503 0.163402C 6.86911 -0.250013 5.96153 0.164011 5.67883 0.923158C 5.13707 2.37804 4.24224 3.22438 2.41678 3.39206C 2.58179 3.0134 2.70252 2.77621 2.79109 2.52804C 3.2649 1.19328 2.44893 0.460353 1.40183 0.207304C 0.16726 -0.0902568 0.137533 1.07987 0.0289398 1.87499C -0.279854 4.13108 1.93023 7.16157 4.37935 7.30121C 6.18539 7.40426 6.18479 5.25121 6.93463 4.08108"/>
<path id="path2_fill" fill-rule="evenodd" d="M 3.91067 9.41077C 4.27709 9.56748 4.55495 9.62175 4.82188 9.26504C 6.17414 7.45711 7.67321 5.73943 8.83983 3.8187C 9.59028 2.58333 9.28149 0.979064 8.00749 0.250405C 6.77353 -0.456912 5.74523 0.436991 5.14159 1.64919C 4.89043 2.15223 4.64231 2.65833 4.42937 3.17784C 4.29044 3.5187 4.16304 3.89187 3.74565 3.86992C 3.34101 3.84919 3.16629 3.54065 3.17903 3.12662C 3.21421 1.93211 2.53778 1.38394 1.45791 1.56809C 0.237908 1.77541 0.130528 2.87358 9.44299e-05 3.87541C -0.0174989 5.34675 2.42737 8.77967 3.91067 9.41077"/>
<path id="path3_fill" fill-rule="evenodd" d="M 5.68697 0.0355463C 4.89891 0.236766 3.86758 0.171522 3.7244 1.3636C 3.6874 1.66908 3.72926 2.01908 3.34888 2.12945C 2.70945 2.31542 2.97942 1.63616 2.78953 1.50384C 1.36568 0.513595 0.424744 0.709327 0.0243441 2.0014C -0.288089 3.00933 2.49105 6.44347 3.53148 6.32335C 3.63462 6.31116 3.7608 6.20994 3.8154 6.11542C 4.78 4.44225 5.99091 2.90811 6.70617 0.919083C 6.46229 0.594693 6.50658 -0.1736 5.68697 0.0355463"/>
<path id="path4_fill" fill-rule="evenodd" d="M 7.2335 0.219806C 6.65717 -0.14117 6.23857 -0.03995 5.72351 0.394806C 4.98398 1.01981 4.69278 1.87225 4.27418 2.907C 3.76034 2.40639 3.39876 2.06859 3.05357 1.71432C 2.11384 0.750904 1.31062 1.07895 0.540758 1.95334C -0.216969 2.8131 -0.214542 3.49115 0.778571 4.24359C 1.49929 4.78932 2.10656 5.47042 2.95529 5.86676C 3.5389 6.1381 4.04183 6.58017 4.59026 5.81249C 5.57609 4.432 6.63108 3.1009 7.57506 1.69298C 7.89598 1.21432 7.86383 0.614318 7.2335 0.219806"/>
<path id="path5_fill" fill-rule="evenodd" d="M 2.2739 6.2572C 2.84296 6.71879 3.31373 6.66574 3.74507 6.16208C 4.89531 4.81696 6.3234 3.72123 7.26192 2.18769C 7.68598 1.49501 8.10336 0.657204 7.23886 0.152935C 6.43624 -0.314747 5.78286 0.380374 5.29571 1.02489C 5.13373 1.23952 5.104 1.5505 4.96568 1.78891C 4.68844 2.26879 4.61442 2.37062 3.7936 2.28281C 2.52688 2.14745 2.25752 0.91757 1.73397 0.870618C 0.333783 0.908423 -0.129104 1.45294 0.0298428 2.2694C 0.332569 3.82489 0.992016 5.21757 2.2739 6.2572"/>
<path id="path6_fill" fill-rule="evenodd" d="M 3.45108 7.44645C 3.62822 7.45682 3.92246 7.36048 3.97948 7.23182C 4.88645 5.1684 6.55842 3.50133 7.10503 1.21901C 6.94548 0.356818 6.67915 -0.283426 5.57805 0.127549C 4.62498 0.482427 3.80719 0.934866 3.36796 1.94096C 2.90022 3.01292 2.38395 3.50072 1.67779 2.02816C 1.28831 1.21474 0.517238 1.1556 0.0986382 1.97877C -0.537148 3.22999 2.05514 7.36596 3.45108 7.44645"/>
<path id="path7_fill" fill-rule="evenodd" d="M 4.00612 7.17341C 4.1226 7.1606 4.26638 7.04536 4.32826 6.93743C 5.42208 5.03926 6.79618 3.29902 7.6079 1.04231C 7.33126 0.674627 7.38101 -0.197325 6.45159 0.0404802C 5.55737 0.269139 4.38771 0.194749 4.22452 1.54597C 4.18327 1.89353 4.23059 2.29048 3.79864 2.41548C 3.07367 2.62707 3.38004 1.85633 3.16407 1.70633C 1.54912 0.582553 0.481386 0.805114 0.0275996 2.27097C -0.326694 3.41426 2.82555 7.3106 4.00612 7.17341"/>
<path id="path8_fill" fill-rule="evenodd" d="M 0.976843 5.80334C 2.5202 7.43627 4.0757 9.057 5.61906 10.6893C 5.90662 10.9936 6.28275 11.4918 6.5697 10.8838C 7.83946 8.19115 10.4451 6.11859 10.3644 2.71188C 10.0398 1.8942 10.7314 0.590539 9.48292 0.149076C 8.37454 -0.242997 7.24128 0.191759 6.29124 0.832003C 5.60268 1.29542 4.95051 1.8442 4.99298 2.87591C 5.02574 3.66188 4.47731 3.97286 3.72444 3.94054C 2.95943 3.90761 2.76044 3.67956 2.79563 2.78505C 2.829 1.93932 2.03548 1.23993 1.01082 1.42591C -0.00717008 1.61066 -0.02537 2.55395 0.00860329 3.28932C 0.0504633 4.19298 0.31497 5.10334 0.976843 5.80334"/>
<path id="path9_fill" fill-rule="evenodd" d="M 1.83483 7.30421C 2.851 8.06762 4.03096 8.6164 5.01498 9.41457C 5.79151 10.0438 6.09484 9.83591 6.65783 9.14323C 8.4936 6.87921 8.68713 4.0664 9.29258 1.41396C 9.55709 0.255425 8.78966 -0.18238 7.5654 0.0682301C 5.30436 0.530425 5.21639 2.59689 4.4071 4.1414L 4.41074 4.16396C 4.40952 4.16274 4.40892 4.16091 4.40831 4.15969C 4.40164 4.15543 4.39557 4.15238 4.3895 4.14811C 4.02672 4.30116 3.66454 4.45421 3.28598 4.61457C 3.40306 3.78286 3.83258 3.80177 4.3895 4.14811C 4.39254 4.14689 4.39618 4.14506 4.39982 4.14384C 4.19901 3.78103 3.98243 3.42555 3.80468 3.05055C 3.30539 2.00055 2.4688 1.52433 1.39924 1.94323C 0.42979 2.3225 -0.160497 3.02006 0.0384902 4.27433C 0.244757 5.5725 0.84839 6.56396 1.83483 7.30421"/>
<path id="path10_fill" fill-rule="evenodd" d="M 32.4041 30.7267C 35.8111 29.3779 38.8572 27.6962 40.1894 23.9365C 40.898 21.9365 41.754 19.9889 42.5481 18.0194C 42.7605 17.4919 43.1299 16.8932 42.2515 16.6676C 41.501 16.4743 40.8574 16.5426 40.7567 17.5962C 40.5771 19.4737 39.7035 21.2243 38.7522 22.6871C 37.7755 24.1883 37.4898 26.2541 35.7753 27.1974C 33.8231 28.2712 31.7822 29.1816 29.6201 30.2413C 30.1454 26.706 31.0099 23.4377 32.0607 20.1913C 32.728 18.1304 33.5495 16.131 33.8643 13.9109C 34.5268 9.23707 31.8775 5.25658 31.539 0.821827C 31.4886 0.159022 30.865 -0.18488 30.2795 0.101705C 29.6334 0.418169 29.4654 1.15719 29.7857 1.77853C 30.746 3.645 30.6811 5.78951 31.4558 7.69683C 32.6989 10.759 32.4508 13.8389 31.4995 16.8987C 30.8073 19.1243 29.87 21.2804 29.2937 23.5328C 27.7594 29.534 26.1069 35.5359 26.955 41.7834C 26.4084 41.945 26.1742 41.7602 26.0304 41.5218C 23.9568 38.084 21.3955 35.3371 17.2016 34.542C 16.2243 34.3572 15.3464 33.5511 14.4692 32.9627C 14.0075 32.6529 13.4203 32.109 14.0039 31.5779C 15.1832 30.5048 14.4577 29.3688 14.0839 28.4377C 13.0453 25.848 13.1479 23.3578 13.9754 20.7487C 14.5972 18.7895 14.9005 16.7462 14.2957 14.6798C 14.1167 14.0682 13.8583 13.5718 13.16 13.7133C 12.4696 13.8523 12.6049 14.5102 12.6935 14.948C 12.995 16.4365 12.9968 17.8938 12.631 19.3749C 12.0759 21.6243 11.3394 23.8432 11.667 26.2365C 11.8866 27.8419 12.7541 29.3121 12.6 31.4798C 10.3317 29.4511 7.9184 28.1877 6.25613 26.0334C 2.96314 21.7663 0.862255 17.1182 1.92271 11.5255C 2.08348 10.6779 1.95486 9.84744 1.68186 9.04195C 1.52292 8.57122 1.15042 8.4139 0.672975 8.45597C 0.291382 8.49012 -0.0392513 8.57366 0.0359754 9.06878C 0.504322 12.1609 -0.520945 15.3834 0.398762 18.3584C 1.91664 23.27 4.48163 27.5779 8.76955 30.7145C 11.9515 33.0419 14.875 35.6627 18.7292 36.9926C 21.8056 38.0548 23.4108 40.934 25.212 43.459C 25.4699 43.8212 25.4492 44.6523 26.1493 44.2383C 27.9287 43.184 27.336 45.0066 27.3196 45.359C 27.2074 47.7243 27.1934 50.0993 27.1388 52.459C 26.9732 59.6669 24.7419 66.281 21.8978 72.756C 21.3039 74.1096 20.5601 75.3968 19.9583 76.748C 19.6465 77.4474 19.6968 78.3267 20.437 78.6255C 21.3275 78.984 21.6272 77.9737 21.8887 77.423C 22.2746 76.6102 22.4062 75.6907 22.809 74.8444C 26.9137 66.2139 29.4356 57.2383 29.1202 47.5346C 28.9976 43.7682 28.4632 40.0261 28.6543 36.2359C 28.8429 32.4901 28.9248 32.1035 32.4041 30.7267"/>
<path id="path11_fill" fill-rule="evenodd" d="M 8.25342 40.327C 9.18405 39.7581 8.83825 39.1392 8.31833 38.3837C 4.43021 32.7349 2.96389 26.3312 2.64782 19.5849C 2.36997 13.6312 2.09818 7.67818 1.80334 1.72513C 1.76694 0.992206 1.95076 -0.0425504 0.775041 0.00135202C -0.353966 0.0434252 0.0901142 0.983059 0.0676675 1.63489C -0.144666 7.74282 0.742887 13.8074 0.763514 19.9056C 0.989194 27.0959 2.84195 33.4227 6.47467 39.4489C 6.89024 40.1373 7.28275 40.9209 8.25342 40.327"/>
<path id="path12_fill" fill-rule="evenodd" d="M 7.41562 16.0569C 7.81906 16.6856 8.20368 15.8691 8.50944 15.5429C 10.159 13.7843 11.0308 11.5032 12.4588 9.59897C 13.532 8.16787 13.9658 6.57945 13.8609 4.19592C 13.6837 3.04287 14.0477 0.902624 11.7861 0.192258C 9.74886 -0.446766 8.1236 0.593477 6.74101 2.04043C 6.59359 2.19409 6.41462 2.3386 6.32605 2.52457C 5.98207 3.24531 5.63748 3.09653 5.02414 2.74653C 4.0286 2.17762 2.91416 1.29714 1.76574 2.41238C 0.474751 3.66726 -0.538383 5.00689 0.315197 7.04531C 1.8537 10.7215 5.33718 12.8185 7.41562 16.0569L 7.41562 16.0569ZM 2.84724 3.62517C 3.8719 3.4398 4.66542 4.13859 4.63206 4.98493C 4.59687 5.87944 4.79586 6.1081 5.56026 6.1398C 6.31374 6.17212 6.86216 5.86176 6.8294 5.07517C 6.78694 4.04468 7.4391 3.49529 8.12706 3.03188C 9.07771 2.39224 10.211 1.95627 11.3193 2.34956C 12.5679 2.79041 11.8763 4.09407 12.2008 4.91237C 12.2815 8.31846 9.67588 10.391 8.40552 13.0837C 8.11918 13.6916 7.74304 13.1935 7.45548 12.8898C 5.91152 11.2575 4.35663 9.63615 2.81327 8.00383C 2.1514 7.30322 1.88689 6.39285 1.84503 5.4892C 1.81106 4.75383 1.82926 3.81054 2.84724 3.62517L 2.84724 3.62517Z"/>
<path id="path13_fill" fill-rule="evenodd" d="M 14.497 18.2032C 15.95 17.9813 17.2422 18.7416 18.6412 18.9081C 19.8812 19.055 20.1985 17.9117 20.2676 17.4636C 20.4351 16.3813 19.4128 17.041 18.8948 16.905C 15.8353 16.1002 12.836 16.23 9.6898 17.7331C 9.8809 16.1526 10.0835 14.9081 10.1727 13.655C 10.4718 9.45321 12.1589 6.06236 15.6497 3.59346C 16.4244 3.04528 17.3605 2.57089 17.7997 1.60992C 18.0151 1.13797 18.7152 0.689187 18.0448 0.150163C 17.5595 -0.241301 17.0845 0.221504 16.735 0.528211C 15.9955 1.17699 15.3967 2.00748 14.6062 2.57577C 11.0694 5.11785 8.90053 8.5648 8.54624 12.8569C 8.21318 16.8953 6.6225 19.9739 3.45266 22.4203C 2.24236 23.355 1.35056 24.7069 0.31195 25.866C -0.0848098 26.3087 -0.120603 26.7849 0.305883 27.1898C 0.766344 27.6264 1.05876 27.2178 1.30688 26.8691C 2.6458 24.9874 4.89168 23.9672 6.15779 22.1319C 8.25504 19.0935 11.3387 18.6861 14.497 18.2032"/>
<path id="path14_fill" fill-rule="evenodd" d="M 0.00121333 0.0182927L 0.00121333 0.0182927C 0.00182 0.0195122 0.00242667 0.0207317 0.00364 0.022561L 0 0C 0 0 0.00364 0.022561 0.00121333 0.0182927"/>
<path id="path15_fill" fill-rule="evenodd" d="M 0.0959781 5.82469C -0.471862 8.64847 1.59262 9.82774 3.32405 11.1875C 4.63688 12.2192 6.26699 12.8168 7.19155 14.3741C 7.69448 15.2223 8.27142 14.682 8.60994 14.1107C 9.5351 12.5515 10.5446 11.0223 11.2684 9.3692C 12.0315 7.6253 12.7413 5.81432 12.7231 3.31554C 12.6789 2.45396 12.9919 0.8253 11.2477 0.238105C 9.38586 -0.388725 7.67446 0.254568 6.59823 1.78567C 5.94485 2.71615 5.37519 2.69115 4.49795 2.55945C 2.35702 2.23689 0.526105 3.68628 0.0959781 5.82469L 0.0959781 5.82469ZM 3.20586 3.86856C 4.27541 3.44966 5.11261 3.92527 5.61129 4.97588C 5.78904 5.35088 6.00623 5.70637 6.20643 6.06917C 6.20886 6.06857 6.21128 6.06735 6.21371 6.06613C 7.023 4.52283 7.11097 2.45515 9.37202 1.99296C 10.5963 1.74296 11.3637 2.18137 11.0998 3.3393C 10.4937 5.99235 10.3002 8.80454 8.46444 11.068C 7.90206 11.7612 7.59873 11.9698 6.82159 11.3393C 5.83818 10.5417 4.65822 9.99235 3.64144 9.22954C 2.655 8.4893 2.05137 7.49844 1.8451 6.20027C 1.64612 4.94478 2.23701 4.24844 3.20586 3.86856L 3.20586 3.86856Z"/>
<path id="path16_fill" fill-rule="evenodd" d="M 2.83464 10.0839C 4.80024 11.4223 7.24754 11.9979 8.89403 14.0278C 10.5248 11.9705 11.567 9.86009 13.1443 8.10399C 14.4851 6.61131 14.9103 4.75704 14.6064 2.7546C 14.3328 0.950941 12.5371 -0.328937 10.7632 0.0747217C 9.26592 0.416185 7.95127 1.16192 7.17534 2.51131C 6.46372 3.7485 5.80064 3.71923 4.89852 2.79545C 3.83928 1.7107 2.76852 1.86009 1.76024 2.87167C -0.934576 5.57655 -0.503236 7.81009 2.83464 10.0839L 2.83464 10.0839ZM 2.08298 5.55402C 2.1212 4.76987 2.31048 4.10036 3.05608 3.81865C 3.88539 3.50463 4.54059 3.80646 4.87122 4.67902C 4.9149 4.71987 4.95858 4.76133 5.00226 4.8028C 4.95251 4.76865 4.90338 4.73572 4.85363 4.70219C 6.0063 5.78755 7.03338 6.08146 7.72256 4.24121C 7.74682 4.17597 7.7905 4.1156 7.83358 4.0589C 9.2641 2.17231 11.3304 1.37597 12.5219 2.24853C 13.5557 3.00768 13.3494 5.12536 11.9892 7.05829C 11.0538 8.38877 9.99088 9.63024 9.08938 10.9815C 8.63559 11.6619 8.34682 11.3193 7.90698 11.0668C 6.49709 10.2595 5.09933 9.41987 3.63787 8.71865C 2.23465 8.04426 2.01564 6.92536 2.08298 5.55402L 2.08298 5.55402Z"/>
<path id="path17_fill" fill-rule="evenodd" d="M 0 0L 12.5693 0L 12.5693 14.2966L 0 14.2966L 0 0Z"/>
<path id="path18_fill" fill-rule="evenodd" d="M 5.59565 14.0923C 5.89049 14.6374 6.29089 13.952 6.52082 13.663C 7.9659 11.8496 9.41583 10.0398 10.813 8.1892C 11.7181 6.99103 12.4 5.66786 12.5693 3.99957C 12.2556 2.67457 12.1932 1.08554 10.6116 0.338592C 8.96144 -0.439456 7.62616 0.209934 6.43649 1.40689C 5.91051 1.93615 5.49737 2.60262 4.47392 2.07579C 3.15321 1.39591 1.8598 2.01115 1.04808 3.01481C 0.11017 4.17396 -0.260503 5.70201 0.192677 7.19896C 1.09358 10.1733 4.17726 11.4721 5.59565 14.0923L 5.59565 14.0923ZM 3.22842 3.32148C 4.30829 3.13734 4.98472 3.68612 4.94954 4.88063C 4.9368 5.29404 5.11152 5.60258 5.51556 5.62331C 5.93355 5.64526 6.06034 5.27209 6.19988 4.93185C 6.41221 4.41173 6.66094 3.90563 6.9115 3.40258C 7.51513 2.19039 8.54343 1.2977 9.778 2.0038C 11.052 2.73246 11.3602 4.33612 10.6103 5.57209C 9.44312 7.49404 7.94465 9.21051 6.59178 11.0178C 6.32546 11.3751 6.0476 11.3203 5.68118 11.1642C 4.19788 10.5331 1.75301 7.10014 1.7706 5.6288C 1.90104 4.62819 2.00842 3.5288 3.22842 3.32148L 3.22842 3.32148Z"/>
<path id="path19_fill" fill-rule="evenodd" d="M 5.49682 11.625C 5.86324 13.1732 6.41289 12.6287 7.1421 11.922C 9.61972 9.52381 10.662 6.38295 11.6527 3.21344C 11.9111 2.386 12.1362 1.53417 11.3263 0.861613C 10.5103 0.182345 9.23874 -0.328021 8.59082 0.253687C 6.87699 1.78844 5.27963 2.411 3.65316 0.964052C 1.51405 0.925638 -0.0578218 2.82259 0.00163157 4.88661C 0.0726116 7.33295 1.65055 8.70491 3.51423 9.84759C 4.29623 10.3269 5.26689 10.6543 5.49682 11.625L 5.49682 11.625ZM 1.98792 4.0183C 2.09652 3.22379 2.12564 2.05366 3.36081 2.35062C 4.40792 2.60366 5.22388 3.33659 4.75008 4.67196C 4.6615 4.92013 4.54078 5.15732 4.37516 5.53598C 6.20122 5.36769 7.09606 4.52196 7.6372 3.06708C 7.92052 2.30793 8.82809 1.89391 9.60402 2.30732C 10.326 2.69208 9.79572 3.45732 9.66044 4.02379C 9.47965 4.77927 9.3019 5.58781 8.89361 6.22501C 8.14316 7.39513 8.14438 9.54818 6.33833 9.44513C 3.88922 9.30488 1.67913 6.27501 1.98792 4.0183L 1.98792 4.0183Z"/>
<path id="path20_fill" fill-rule="evenodd" d="M 5.50532 11.7621C 5.87054 12.428 6.42018 11.7859 6.64828 11.4188C 8.27597 8.79869 10.3726 6.41332 10.8907 3.22064C 11.0854 2.02369 10.8816 0.743809 9.70346 0.298078C 8.57688 -0.126313 7.21552 -0.209239 6.18297 0.804785C 5.84991 1.13222 5.76619 1.57491 5.05518 1.28161C 3.94801 0.823687 2.62184 -0.0622882 1.71912 1.59259C 1.08515 2.75478 -0.0250489 3.68466 0.000431053 5.5621C 0.0641311 5.92674 0.394158 6.61149 0.767864 7.31393C 1.84773 9.34808 4.39694 9.74381 5.50532 11.7621L 5.50532 11.7621ZM 1.96119 4.24448C 2.41498 2.77863 3.48271 2.55606 5.09766 3.67984C 5.31363 3.82984 5.00727 4.60058 5.73284 4.38899C 6.16418 4.26399 6.11686 3.86704 6.15811 3.51948C 6.32131 2.16826 7.49096 2.24265 8.38519 2.01399C 9.3146 1.77619 9.26485 2.64814 9.54149 3.01582C 8.72977 5.27253 7.35567 7.01277 6.26185 8.91094C 6.19997 9.01826 6.05619 9.1335 5.93971 9.14753C 4.75914 9.28411 1.6069 5.38777 1.96119 4.24448L 1.96119 4.24448Z"/>
<path id="path21_fill" fill-rule="evenodd" d="M 3.99672 11.9756C 4.05618 12.664 4.68104 12.5024 5.06324 12.0061C 6.67334 9.91219 8.32832 7.85061 9.87108 5.70854C 10.5251 4.79939 10.9491 3.72195 11.0735 2.57439C 11.1712 1.49268 10.4547 0.799389 9.74186 0.276218C 8.972 -0.287806 8.14026 0.0981694 7.41408 0.662804C 6.49558 1.37805 5.79792 2.79146 4.26244 1.71646C 3.2026 0.973169 2.16702 1.14329 1.2097 1.93902C 0.114056 2.85061 -0.23599 4.08049 0.154096 5.38597C 0.45197 6.38415 1.00282 7.32317 1.54276 8.22744C 2.30473 9.50122 3.84506 10.2177 3.99672 11.9756L 3.99672 11.9756ZM 3.56063 3.0049C 4.08418 3.05124 4.35294 4.28172 5.62026 4.4177C 6.44108 4.5049 6.5151 4.40307 6.79234 3.9238C 6.93066 3.68416 6.95978 3.3738 7.12237 3.15916C 7.60952 2.51465 8.2629 1.81953 9.06552 2.28721C 9.93002 2.79148 9.51264 3.6299 9.08858 4.32197C 8.15006 5.85551 6.72197 6.95185 5.57173 8.29636C 5.14039 8.80063 4.66962 8.85307 4.10056 8.39148C 2.81868 7.35246 2.15923 5.95977 1.8565 4.40368C 1.69756 3.5866 2.16044 3.0427 3.56063 3.0049L 3.56063 3.0049Z"/>
<path id="path22_fill" fill-rule="evenodd" d="M 4.92067 12.0362C 5.84159 12.449 6.14917 11.8795 6.43309 11.4051C 7.69617 9.28745 8.99626 7.17647 10.0349 4.94659C 10.4413 4.07403 10.9164 3.00391 10.4711 1.87891C 9.60899 -0.299138 7.61245 -0.637553 5.48366 1.1472C 4.60642 1.88196 3.97913 2.50086 2.56135 2.06976C 0.967027 1.58562 0 2.75635 0 4.56428C 0.000606667 7.28745 2.51949 10.9606 4.92067 12.0362L 4.92067 12.0362ZM 1.80827 4.10328C 2.22626 3.28011 2.99733 3.33926 3.38681 4.15267C 4.09297 5.62523 4.60985 5.13743 5.07759 4.06548C 5.51682 3.05938 6.334 2.60694 7.28707 2.25206C 8.38878 1.84109 8.6545 2.48133 8.81466 3.34352C 8.26805 5.62584 6.59608 7.29291 5.68851 9.35633C 5.63209 9.48499 5.33725 9.58133 5.16071 9.57096C 3.76477 9.49048 1.17187 5.3545 1.80827 4.10328L 1.80827 4.10328Z"/>
<path id="path23_fill" fill-rule="evenodd" d="M 8.23851 7.99264C 8.98956 7.15971 9.54102 6.13532 10.1265 5.16215C 10.525 4.50118 10.9175 3.81398 11.1608 3.08715C 11.5764 1.84264 10.7525 1.07435 9.88621 0.429836C 9.05569 -0.189677 8.16631 -0.120774 7.35035 0.515811C 6.26623 1.36276 5.66988 3.62008 3.86383 1.75788C 1.88731 1.84569 0.751634 3.01154 0.163774 4.45118C -0.362813 5.74264 0.45194 6.90362 1.58883 7.68106C 2.28347 8.15727 3.00661 8.5902 3.73097 9.02069C 4.69739 9.59325 5.65107 10.5475 6.65632 10.6122C 8.23669 10.7128 7.50383 8.8091 8.23851 7.99264L 8.23851 7.99264ZM 4.77618 7.74688C 3.92746 7.35054 3.31958 6.66944 2.59946 6.12371C 1.60635 5.37127 1.60392 4.69323 2.36104 3.83347C 3.13151 2.95908 3.93474 2.63103 4.87386 3.59444C 5.21905 3.94871 5.58123 4.28652 6.09508 4.78713C 6.51307 3.75237 6.80427 2.89932 7.5438 2.27493C 8.05886 1.84018 8.47806 1.73896 9.05379 2.10054C 9.68412 2.49444 9.71627 3.09444 9.39534 3.5731C 8.45198 4.98103 7.39638 6.31213 6.41054 7.69262C 5.86212 8.4603 5.3598 8.01884 4.77618 7.74688L 4.77618 7.74688Z"/>
<path id="path24_fill" fill-rule="evenodd" d="M 22.297 7.17378C 23.0402 6.72622 24.1012 6.28537 23.6189 5.37073C 23.2179 4.60915 22.169 4.81098 21.4428 5.45427C 20.7809 6.03963 19.9304 6.30732 19.115 6.26402C 15.3616 6.06402 11.9897 4.74695 9.04921 2.40366C 7.39968 1.08902 5.4905 0.479268 3.51277 0C 2.59124 0.332927 1.49499 0.00914639 0.734841 0.84939C 0.356888 1.26646 -0.234006 1.6561 0.0972343 2.2811C 0.439394 2.925 0.971441 2.38415 1.39611 2.2622C 3.75665 1.5878 5.9091 2.10793 7.79341 3.56098C 9.25001 4.68415 10.7388 5.78049 12.4484 6.37317C 15.6346 7.47744 18.8153 9.27012 22.297 7.17378"/>
<path id="path25_fill" fill-rule="evenodd" d="M 1.93481 8.13302C 1.80074 6.15131 2.74835 4.35253 2.43774 2.64522C 2.43774 2.20009 2.50387 1.9568 2.42561 1.77753C 2.16413 1.17875 3.02196 0.013508 1.6515 9.33748e-05C 0.449087 -0.0121017 0.669913 1.17326 0.62502 1.78668C 0.486093 3.69034 0.30834 5.58058 0.0565733 7.47509C -0.174567 9.2129 0.307127 10.8629 1.41793 12.2672C 2.12288 13.1586 2.87211 14.0147 3.56735 14.9135C 3.95683 15.4172 4.06421 16.5989 4.95905 15.9422C 5.47471 15.5635 6.20514 14.7745 5.10707 13.6836C 3.60557 12.1922 2.10286 10.6239 1.93481 8.13302"/>
<path id="path26_fill" fill-rule="evenodd" d="M 0 0L 4.61133 0L 4.61133 11.4545L 0 11.4545L 0 0Z"/>
<path id="path27_fill" fill-rule="evenodd" d="M 2.98254 10.6238C 3.33684 11.0244 3.65109 11.7238 4.30508 11.3463C 4.8074 11.0555 4.58536 10.4457 4.38698 9.98598C 3.2155 7.26524 2.06466 4.5372 2.10773 1.49268C 2.1229 0.409146 1.01027 0.584146 0.632924 0C 0.180351 0.120122 -0.0932555 0.396951 0.0292911 0.784146C 1.05941 4.05122 0.487931 7.8061 2.98254 10.6238"/>
<path id="path28_fill" fill-rule="evenodd" d="M 0.0188067 0.0176829L 0.0188067 0.0176829C 0.0212333 0.022561 0.0175933 0 0.0175933 0C 0.0151667 0.00121951 0.01274 0.00243902 0.0103133 0.00304878C 0.00667333 0.00487805 0.00364 0.0054878 0 0.00670732C 0.00667333 0.0109756 0.0121333 0.0140244 0.0188067 0.0176829"/>
<path id="path29_fill" fill-rule="evenodd" d="M 0 0.69085C 0.37856 0.531094 0.74074 0.378045 1.10292 0.224996C 0.546607 -0.121345 0.117087 -0.140248 0 0.69085"/>
<path id="path30_fill" fill-rule="evenodd" d="M 8.55319 0.263272C 7.56007 -0.111728 6.36009 -0.184289 5.45009 0.709613C 5.15585 0.998638 5.08245 1.38827 4.45576 1.12913C 3.48024 0.725467 2.31119 -0.0544112 1.51464 1.40413C 0.956507 2.42791 -0.0226534 3.24803 0.000399904 4.90291C 0.0568199 5.22425 0.347413 5.8273 0.676227 6.44742C 1.62809 8.24071 3.87518 8.58888 4.85252 10.3681C 5.17466 10.9547 5.65878 10.3889 5.86019 10.0651C 7.29496 7.75595 9.14287 5.65291 9.59969 2.83949C 9.77077 1.784 9.5918 0.655345 8.55319 0.263272L 8.55319 0.263272ZM 5.51942 7.85476C 5.46482 7.94988 5.33863 8.0511 5.2355 8.0633C 4.19507 8.18342 1.41653 4.74927 1.72836 3.74134C 2.12876 2.44866 3.0697 2.25354 4.49355 3.24378C 4.68343 3.37549 4.41347 4.05476 5.05289 3.86939C 5.43327 3.75842 5.39141 3.40842 5.42842 3.10293C 5.57159 1.91147 6.60293 1.97671 7.39099 1.77488C 8.21059 1.56635 8.16631 2.33403 8.41079 2.65842C 7.69493 4.64805 6.48402 6.18159 5.51942 7.85476L 5.51942 7.85476Z"/>
</defs>
</svg>
