<svg width="93" height="100" viewBox="0 0 93 100" version="1.1" xmlns="http://www.w3.org/2000/svg" xmlns:xlink="http://www.w3.org/1999/xlink">
<title>Page 1</title>
<desc>Created using Figma</desc>
<g id="Canvas" transform="translate(4351 -1065)">
<g id="Page 1">
<g id="Group 3">
<mask id="mask0_outline" mask-type="alpha">
<g id="Clip 2">
<use xlink:href="#path0_fill" transform="translate(-4351 1065.64)" fill="#FFFFFF"/>
</g>
</mask>
<g id="Fill 1" mask="url(#mask0_outline)">
<use xlink:href="#path1_fill" transform="translate(-4351 1065.64)"/>
</g>
</g>
<g id="Group 6">
<mask id="mask1_outline" mask-type="alpha">
<g id="Clip 5">
<use xlink:href="#path2_fill" transform="translate(-4304.27 1065.99)" fill="#FFFFFF"/>
</g>
</mask>
<g id="Fill 4" mask="url(#mask1_outline)">
<use xlink:href="#path3_fill" transform="translate(-4304.27 1065.99)"/>
</g>
</g>
<g id="Fill 7">
<use xlink:href="#path4_fill" transform="translate(-4324.47 1109.43)" fill="#FFFFFF"/>
</g>
<g id="Fill 9">
<use xlink:href="#path5_fill" transform="translate(-4326.76 1107.49)"/>
</g>
</g>
</g>
<defs>
<path id="path0_fill" fill-rule="evenodd" d="M 0 0L 46.0972 0L 46.0972 99.0004L 0 99.0004L 0 0Z"/>
<path id="path1_fill" fill-rule="evenodd" d="M 41.3124 92.6764C 41.3265 93.3226 41.4137 94.3181 42.5849 94.2495C 43.7067 94.1834 43.8619 93.161 43.7163 92.5674C 43.225 90.5668 43.6887 88.5552 43.4463 86.5931C 42.7318 80.8149 43.2455 75.0879 43.7971 69.3488C 44.1486 65.686 46.1202 62.3072 46.0471 58.6072C 45.9553 53.8937 46.2382 49.195 45.9977 44.4623C 45.5917 36.4783 45.3409 28.4847 44.7425 20.5078C 44.4256 16.2802 42.2924 14.0681 38.9784 14.4354C 38.8412 11.6117 39.0329 8.78025 38.0163 6.01871C 36.9767 3.19307 33.8865 2.21807 31.6365 4.17576C 31.2543 4.50845 31.2831 5.38666 30.416 5.13217C 29.7214 3.30012 30.9477 0.318707 27.8614 0.0225529C 24.8418 -0.267191 23.7386 2.28986 22.9138 4.53089C 22.2884 4.64691 22.2416 4.2296 22.0325 4.00973C 19.1367 0.962937 16.1767 1.56871 14.8651 5.50268C 14.3328 7.09884 13.9576 8.72832 13.8498 10.4181C 13.497 15.97 14.3815 21.4552 14.7542 26.97C 15.0081 30.729 16.2479 34.4476 15.4911 38.8315C 14.783 37.3751 14.2051 36.4597 13.8793 35.4693C 12.5202 31.3424 10.2267 27.6187 8.34164 23.7219C 7.19614 21.3546 3.91869 20.1386 1.68092 21.1751C -0.99171 22.4129 0.215366 24.3469 0.655994 26.3104C 1.17423 28.6219 2.43903 30.6572 2.96496 32.9328C 4.51325 39.6258 6.43675 46.2091 8.87078 52.6687C 9.54038 54.445 9.92649 56.4681 9.80078 58.3367C 9.53012 62.3572 11.2073 66.1091 13.4226 69.445C 15.3853 72.3995 18.5325 74.5834 20.2604 77.679C 22.1159 81.004 22.7137 84.611 22.8394 88.3463C 22.9452 91.4745 23.6039 94.8617 23.3801 97.9315C 23.3563 98.261 23.6969 98.7642 24.0157 98.9334C 24.5166 99.1995 24.6628 98.6091 24.9694 98.3559C 25.7224 97.7328 26.0309 97.0123 25.6756 96.1264C 24.9688 94.3649 24.9931 92.5104 24.8168 90.6777C 24.3441 85.7649 24.3633 79.1969 21.1327 75.0501C 19.356 72.77 17.0856 70.8443 15.0966 68.7367C 13.1712 66.695 12.3034 64.1424 11.9154 61.4052C 11.6608 59.6104 11.8673 57.7482 11.6505 55.9129C 11.2266 52.3187 9.33386 49.1918 8.49878 45.702C 7.55531 41.7597 6.76577 37.7777 5.47981 33.9168C 4.52992 31.0642 3.5531 28.2187 2.41081 25.429C 2.06959 24.5956 1.07289 23.4142 2.45442 22.8322C 3.60057 22.3495 4.76723 23.1155 5.51765 24.077C 7.08839 26.0911 8.59434 28.152 9.66032 30.4642C 11.0675 33.5149 11.8461 37.0623 14.0037 39.5097C 16.2659 42.0758 17.042 44.7751 17.8642 47.7636C 17.9854 47.1892 18.1092 46.6149 18.2368 46.0424C 18.3965 45.3264 18.7827 44.7213 19.2996 44.2226C 18.8577 40.9899 17.5211 37.1899 17.8232 35.1283C 17.8943 34.6424 17.8097 34.1219 17.7244 33.6283C 16.5481 26.8565 15.9593 20.0328 15.7682 13.1802C 15.7028 10.8386 16.1864 8.52704 16.847 6.2764C 17.1369 5.29114 17.7289 4.39178 19.054 4.49307C 20.2989 4.58858 20.8691 5.3905 21.1089 6.45845C 21.2173 6.93922 21.311 7.4296 21.3373 7.91935C 21.7631 15.8392 22.1602 23.761 22.604 31.6802C 22.7489 34.2681 22.9779 36.8533 23.2351 39.4334C 23.3095 40.177 23.0812 41.3277 24.4826 41.1693C 25.5479 41.0495 25.6557 39.9565 25.505 39.3796C 24.4069 35.179 24.9059 30.8815 24.4993 26.6424C 24.2222 23.7488 21.1391 0.213578 27.0738 1.79691C 29.7567 2.5123 28.9023 6.84563 28.8087 8.76037C 28.6342 12.354 29.2115 16.0674 29.4777 19.677C 29.9747 26.4193 28.8382 33.1796 29.7246 39.9187C 29.8304 40.7258 29.8561 41.8488 31.0215 41.7258C 31.9611 41.6258 32.2734 40.7129 32.1394 39.7578C 30.9843 31.5065 31.7905 23.1719 31.2677 14.8892C 31.0946 12.1411 29.4045 7.15973 32.7929 5.39884C 35.141 4.17896 36.4385 6.89435 36.731 8.77127C 37.2486 12.0937 37.0799 15.4334 36.8862 18.7649C 36.5014 25.3886 37.7983 31.9661 37.4782 38.5854C 37.4333 39.5078 37.2364 40.8193 38.4582 40.7719C 39.734 40.7226 39.7987 39.5418 39.7237 38.3033C 39.3344 31.8738 39.1073 25.436 38.8585 18.9995C 38.8213 18.0341 38.5929 16.7296 40.0354 16.5879C 41.2386 16.4693 41.8877 17.5226 42.1205 18.5232C 42.5195 20.2341 42.9171 21.9764 43.0005 23.7181C 43.3802 31.6341 43.8067 39.5527 43.9048 47.4732C 43.9722 52.8418 44.7085 58.3065 43.0589 63.5668C 40.054 73.1501 41.0969 82.9322 41.3124 92.6764"/>
<path id="path2_fill" fill-rule="evenodd" d="M 0 0L 46.0969 0L 46.0969 99.0005L 0 99.0005L 0 0Z"/>
<path id="path3_fill" fill-rule="evenodd" d="M 4.78471 92.6764C 4.7706 93.3226 4.68337 94.3181 3.51221 94.2488C 2.39044 94.1834 2.23522 93.1604 2.38082 92.5668C 2.87211 90.5668 2.4084 88.5546 2.65084 86.5931C 3.36533 80.8149 2.85159 75.0879 2.3 69.3488C 1.94853 65.686 -0.0230723 62.3065 0.0500449 58.6072C 0.142404 53.8937 -0.141086 49.195 0.0994311 44.4623C 0.505424 36.4783 0.756204 28.4847 1.35461 20.5078C 1.67145 16.2802 3.80468 14.0681 7.11869 14.4354C 7.25594 11.6117 7.06417 8.78025 8.08076 6.01871C 9.12043 3.19307 12.2106 2.21807 14.4606 4.17576C 14.8428 4.50845 14.814 5.38666 15.6811 5.13217C 16.3757 3.30012 15.1494 0.318707 18.2357 0.0225529C 21.2553 -0.267191 22.3585 2.28986 23.1833 4.53089C 23.8087 4.64691 23.8555 4.2296 24.0646 4.00973C 26.9604 0.962937 29.9204 1.56871 31.232 5.50204C 31.7643 7.09819 32.1395 8.72832 32.2473 10.4181C 32.6 15.97 31.7156 21.4552 31.3429 26.97C 31.089 30.729 29.8492 34.4476 30.606 38.8315C 31.3141 37.3751 31.892 36.4597 32.2178 35.4693C 33.5769 31.3424 35.8711 27.6187 37.7561 23.7219C 38.901 21.3546 42.1784 20.1386 44.4162 21.1751C 47.0888 22.4129 45.8817 24.3469 45.4411 26.3097C 44.9229 28.6219 43.6581 30.6565 43.1321 32.9322C 41.5838 39.6258 39.6603 46.2084 37.2263 52.6687C 36.5567 54.445 36.1706 56.4674 36.2963 58.3367C 36.567 62.3572 34.8898 66.1091 32.6744 69.445C 30.7118 72.3995 27.5646 74.5834 25.8367 77.679C 23.9812 81.004 23.3834 84.6104 23.2577 88.3463C 23.1519 91.4745 22.4932 94.8617 22.717 97.9315C 22.7408 98.261 22.4002 98.7636 22.0814 98.9328C 21.5805 99.1995 21.4343 98.6091 21.1277 98.3559C 20.3747 97.7328 20.0662 97.0123 20.4215 96.1264C 21.1283 94.3649 21.104 92.5104 21.2803 90.6777C 21.753 85.7642 21.7338 79.1969 24.9644 75.0501C 26.741 72.77 29.0115 70.8443 31.0004 68.7367C 32.9259 66.695 33.7937 64.1424 34.1817 61.4052C 34.4363 59.6104 34.2298 57.7482 34.4466 55.9129C 34.8705 52.3187 36.7632 49.1918 37.5983 45.702C 38.5418 41.7591 39.3313 37.7777 40.6173 33.9168C 41.5672 31.0642 42.544 28.2187 43.6863 25.429C 44.0275 24.5956 45.0242 23.4142 43.6427 22.8322C 42.4965 22.3495 41.3299 23.1155 40.5794 24.077C 39.0087 26.0905 37.5027 28.152 36.4368 30.4642C 35.0296 33.5149 34.251 37.0623 32.0934 39.5097C 29.8312 42.0758 29.0551 44.7751 28.2329 47.7636C 28.1123 47.1886 27.9879 46.6149 27.8603 46.0424C 27.7005 45.3264 27.3144 44.7213 26.7975 44.2226C 27.2394 40.9899 28.576 37.1899 28.2739 35.1283C 28.2027 34.6424 28.2874 34.1219 28.3727 33.6283C 29.5496 26.8565 30.1378 20.0322 30.3289 13.1802C 30.3943 10.8386 29.9107 8.52704 29.2501 6.2764C 28.9609 5.29114 28.3682 4.39114 27.0431 4.49307C 25.7982 4.58858 25.228 5.3905 24.9882 6.45845C 24.8798 6.93922 24.7861 7.4296 24.7598 7.91935C 24.3339 15.8392 23.9369 23.761 23.4931 31.6802C 23.3481 34.2681 23.1192 36.8533 22.862 39.4334C 22.7876 40.177 23.0159 41.3277 21.6145 41.1693C 20.5492 41.0495 20.4414 39.9565 20.5921 39.3796C 21.6902 35.179 21.1912 30.8815 21.5978 26.6424C 21.8749 23.7488 24.958 0.213578 19.0233 1.79691C 16.3404 2.5123 17.1948 6.84563 17.2884 8.76037C 17.4629 12.354 16.8856 16.0674 16.6194 19.677C 16.1224 26.4193 17.2589 33.1796 16.3725 39.9187C 16.2667 40.7258 16.241 41.8488 15.0763 41.7258C 14.136 41.6258 13.8237 40.7129 13.9577 39.7578C 15.1128 31.5065 14.3066 23.1719 14.8293 14.8892C 15.0025 12.1411 16.6926 7.15973 13.3041 5.39819C 10.9561 4.17896 9.65855 6.89435 9.36608 8.77127C 8.84849 12.0937 9.01717 15.4334 9.21087 18.7649C 9.59569 25.3886 8.29882 31.9661 8.61887 38.5847C 8.66377 39.5078 8.86131 40.8193 7.63884 40.7719C 6.36378 40.7226 6.29836 39.5418 6.3734 38.3027C 6.76272 31.8738 6.98977 25.436 7.23862 18.9995C 7.27582 18.0341 7.50416 16.7296 6.06169 16.5879C 4.85847 16.4693 4.20939 17.5226 3.97657 18.5232C 3.57763 20.2341 3.18062 21.9764 3.0966 23.7181C 2.7169 31.6341 2.29038 39.5527 2.19225 47.4732C 2.12555 52.8418 1.3886 58.3065 3.03823 63.5668C 6.04309 73.1501 5.00021 82.9322 4.78471 92.6764"/>
<path id="path4_fill" fill-rule="evenodd" d="M 20.5046 10.1997C 20.1133 10.0311 19.9543 9.5721 19.8241 9.16634C 17.2855 1.26762 9.58059 -2.83431 2.24064 2.22467C 0.4358 3.4689 -0.209428 5.23941 0.0580273 7.48428C 0.731476 13.1401 3.58882 17.5266 7.54421 21.4368C 9.52799 23.399 11.8562 24.9561 13.9548 26.7862C 16.0649 28.6253 17.5196 31.0093 19.7189 32.7811C 19.8843 32.9144 20.0639 33.0503 20.2756 33.0753C 20.5302 33.1042 20.772 32.9663 20.9837 32.8221C 22.8398 31.5561 24.6177 30.1894 26.402 28.8022C 26.9767 28.3554 27.5475 27.9048 28.1139 27.4484C 31.9679 24.3471 35.6206 21.0118 38.8256 17.2304C 41.2609 14.358 42.0325 11.2676 41.5828 7.52851C 41.3827 5.86441 40.522 4.31377 39.2938 3.1721C 37.1464 1.17467 33.8998 0.671463 31.1386 0.638771C 28.3704 0.606079 25.6497 2.158 23.7923 4.12467C 22.6647 5.31954 22.2427 7.608 21.904 9.12467C 21.7578 9.78172 21.1228 10.4663 20.5046 10.1997"/>
<path id="path5_fill" fill-rule="evenodd" d="M 45.4369 10.1243C 44.9758 5.13455 41.9113 1.69737 37.0964 0.746734C 33.4919 0.0351953 29.9566 0.509554 27.0107 2.83007C 26.1949 3.47366 25.406 4.07878 24.8692 4.96212C 24.3939 5.74481 24.1418 6.5743 23.7038 7.35955C 23.5184 7.69289 23.1413 7.98263 22.7783 7.86532C 21.8233 7.55635 21.7008 5.96404 21.196 5.24096C 20.5033 4.2493 19.563 3.36596 18.6157 2.62173C 15.641 0.285836 12.0121 -0.512241 8.30939 0.320452C 3.26687 1.45507 -0.630794 5.53071 0.0849849 9.82814C 0.855923 14.4602 2.64152 18.6955 5.89524 22.232C 8.31196 24.8589 11.1892 26.9884 13.8695 29.3288C 16.2574 31.414 18.669 33.866 20.6867 36.2993C 21.4737 37.248 22.0227 37.882 23.2061 37.1333C 24.0982 36.5692 24.773 35.6756 25.5304 34.9557C 29.6699 31.0217 34.8452 28.3461 39.0488 24.4044C 43.0638 20.6384 45.9616 15.7974 45.4369 10.1243L 45.4369 10.1243ZM 41.1177 19.1737C 37.9127 22.9545 34.2594 26.2904 30.4054 29.3917C 29.839 29.8481 29.2682 30.2987 28.6942 30.7449C 26.9099 32.132 25.1313 33.4994 23.2752 34.7654C 23.0635 34.9096 22.8217 35.0474 22.5671 35.0179C 22.3554 34.9936 22.1758 34.857 22.0104 34.7237C 19.8117 32.9526 18.3564 30.5679 16.2469 28.7288C 14.1477 26.8994 11.8201 25.3423 9.83571 23.3801C 5.88032 19.4699 3.02298 15.0833 2.34953 9.42756C 2.08208 7.18269 2.7273 5.41153 4.53215 4.16794C 11.8721 -0.891671 19.577 3.21089 22.1156 11.1096C 22.2464 11.5154 22.4048 11.9737 22.7961 12.1429C 23.4144 12.409 24.0493 11.725 24.1962 11.0679C 24.5348 9.55064 24.9562 7.26282 26.0844 6.06794C 27.9412 4.10128 30.6619 2.54935 33.4301 2.58205C 36.1913 2.61474 39.4379 3.11794 41.5853 5.11474C 42.8135 6.25705 43.6742 7.80705 43.8744 9.47179C 44.3246 13.2103 43.5524 16.3006 41.1177 19.1737L 41.1177 19.1737Z"/>
</defs>
</svg>
